<svg xmlns="http://www.w3.org/2000/svg" viewBox="0 0 64 64">
  <defs>
    <linearGradient id="g" x1="0%" y1="0%" x2="100%" y2="100%">
      <stop offset="0%" stop-color="#0c4a6e" />
      <stop offset="100%" stop-color="#0369a1" />
    </linearGradient>
  </defs>
  <rect width="64" height="64" rx="18" fill="url(#g)" />
  <path
    d="M18 20h16c7 0 11 3.8 11 9.4 0 3.8-1.9 6.6-5.2 8 4.2 1.1 6.7 4 6.7 8.4C46.5 52 41.7 56 33.4 56H18V20Zm13.3 14.2c3.5 0 5.5-1.3 5.5-3.9 0-2.6-2-3.8-5.5-3.8h-5v7.7h5Zm1 15.2c4 0 6.1-1.4 6.1-4.3s-2.1-4.2-6.1-4.2h-6v8.5h6Z"
    fill="#fff"
  />
</svg>
